REM DIRINDEX 1\2\6,1\2\7,1\2\8,1\2\9,1\3\10,1\3\11,1\4\12,1\4\13,1\4\14,1\5\15,1\5\16,1\5\17
REM DIRNAME folder01,folder02,folder03,folder04,folder05,folder06,folder07,folder08,folder09,folder10,folder11,folder12,folder13,folder14,folder15,folder16,folder17
TITLE ""
FILE "1400_2_sec09_0868_0884.mp3" MP3
  TRACK 01 AUDIO
    TITLE "0:"
    INDEX 01 00:00:00
  TRACK 02 AUDIO
    TITLE "13:cjc029_3337"
    INDEX 01 00:00:17
  TRACK 03 AUDIO
    TITLE "0:"
    INDEX 01 00:01:40
  TRACK 04 AUDIO
    TITLE "14:cjc029_3338"
    INDEX 01 00:01:46
  TRACK 05 AUDIO
    TITLE "0:"
    INDEX 01 00:02:57
  TRACK 06 AUDIO
    TITLE "13:cjc029_3339"
    INDEX 01 00:03:39
  TRACK 07 AUDIO
    TITLE "0:"
    INDEX 01 00:04:42
  TRACK 08 AUDIO
    TITLE "14:cjc029_3340"
    INDEX 01 00:04:46
  TRACK 09 AUDIO
    TITLE "0:"
    INDEX 01 00:07:43
  TRACK 10 AUDIO
    TITLE "13:cjc029_3341"
    INDEX 01 00:08:24
  TRACK 11 AUDIO
    TITLE "0:"
    INDEX 01 00:09:38
  TRACK 12 AUDIO
    TITLE "14:cjc029_3342"
    INDEX 01 00:09:40
  TRACK 13 AUDIO
    TITLE "0:"
    INDEX 01 00:13:26
  TRACK 14 AUDIO
    TITLE "13:cjc029_3343"
    INDEX 01 00:14:06
  TRACK 15 AUDIO
    TITLE "0:"
    INDEX 01 00:15:21
  TRACK 16 AUDIO
    TITLE "14:cjc029_3344"
    INDEX 01 00:15:23
  TRACK 17 AUDIO
    TITLE "0:"
    INDEX 01 00:17:00
  TRACK 18 AUDIO
    TITLE "13:cjc029_3345"
    INDEX 01 00:17:57
  TRACK 19 AUDIO
    TITLE "0:"
    INDEX 01 00:18:64
  TRACK 20 AUDIO
    TITLE "14:cjc029_3346"
    INDEX 01 00:18:68
  TRACK 21 AUDIO
    TITLE "0:"
    INDEX 01 00:22:64
  TRACK 22 AUDIO
    TITLE "13:cjc029_3347"
    INDEX 01 00:23:46
  TRACK 23 AUDIO
    TITLE "0:"
    INDEX 01 00:25:01
  TRACK 24 AUDIO
    TITLE "14:cjc029_3348"
    INDEX 01 00:25:07
  TRACK 25 AUDIO
    TITLE "0:"
    INDEX 01 00:28:23
  TRACK 26 AUDIO
    TITLE "13:cjc029_3349"
    INDEX 01 00:29:05
  TRACK 27 AUDIO
    TITLE "0:"
    INDEX 01 00:30:10
  TRACK 28 AUDIO
    TITLE "14:cjc029_3350"
    INDEX 01 00:30:16
  TRACK 29 AUDIO
    TITLE "0:"
    INDEX 01 00:31:41
  TRACK 30 AUDIO
    TITLE "13:cjc029_3351"
    INDEX 01 00:32:23
  TRACK 31 AUDIO
    TITLE "0:"
    INDEX 01 00:33:28
  TRACK 32 AUDIO
    TITLE "14:cjc029_3352"
    INDEX 01 00:33:32
  TRACK 33 AUDIO
    TITLE "0:"
    INDEX 01 00:37:05
  TRACK 34 AUDIO
    TITLE "13:cjc029_3353"
    INDEX 01 00:37:63
  TRACK 35 AUDIO
    TITLE "0:"
    INDEX 01 00:38:73
  TRACK 36 AUDIO
    TITLE "14:cjc029_3354"
    INDEX 01 00:39:05
  TRACK 37 AUDIO
    TITLE "0:"
    INDEX 01 00:40:17
  TRACK 38 AUDIO
    TITLE "12:cjc029_3355"
    INDEX 01 00:41:63
  TRACK 39 AUDIO
    TITLE "0:"
    INDEX 01 00:43:31
  TRACK 40 AUDIO
    TITLE "13:cjc029_3356"
    INDEX 01 00:44:36
  TRACK 41 AUDIO
    TITLE "0:"
    INDEX 01 00:45:53
  TRACK 42 AUDIO
    TITLE "14:cjc029_3357"
    INDEX 01 00:45:57
  TRACK 43 AUDIO
    TITLE "0:"
    INDEX 01 00:48:32
  TRACK 44 AUDIO
    TITLE "13:cjc029_3358"
    INDEX 01 00:49:12
  TRACK 45 AUDIO
    TITLE "0:"
    INDEX 01 00:50:15
  TRACK 46 AUDIO
    TITLE "14:cjc029_3359"
    INDEX 01 00:50:19
  TRACK 47 AUDIO
    TITLE "0:"
    INDEX 01 00:53:66
  TRACK 48 AUDIO
    TITLE "13:cjc029_3360"
    INDEX 01 00:54:48
  TRACK 49 AUDIO
    TITLE "0:"
    INDEX 01 00:55:57
  TRACK 50 AUDIO
    TITLE "14:cjc029_3361"
    INDEX 01 00:55:59
  TRACK 51 AUDIO
    TITLE "0:"
    INDEX 01 00:57:09
  TRACK 52 AUDIO
    TITLE "13:cjc029_3362"
    INDEX 01 00:57:66
  TRACK 53 AUDIO
    TITLE "0:"
    INDEX 01 00:58:66
  TRACK 54 AUDIO
    TITLE "14:cjc029_3363"
    INDEX 01 00:58:69
  TRACK 55 AUDIO
    TITLE "0:"
    INDEX 01 01:01:56
  TRACK 56 AUDIO
    TITLE "13:cjc029_3364"
    INDEX 01 01:02:38
  TRACK 57 AUDIO
    TITLE "0:"
    INDEX 01 01:03:49
  TRACK 58 AUDIO
    TITLE "14:cjc029_3365"
    INDEX 01 01:03:55
  TRACK 59 AUDIO
    TITLE "0:"
    INDEX 01 01:05:13
  TRACK 60 AUDIO
    TITLE "13:cjc029_3366"
    INDEX 01 01:05:69
  TRACK 61 AUDIO
    TITLE "0:"
    INDEX 01 01:07:06
  TRACK 62 AUDIO
    TITLE "14:cjc029_3367"
    INDEX 01 01:07:12
  TRACK 63 AUDIO
    TITLE "0:"
    INDEX 01 01:09:44
  TRACK 64 AUDIO
    TITLE "13:cjc029_3368"
    INDEX 01 01:10:24
  TRACK 65 AUDIO
    TITLE "0:"
    INDEX 01 01:11:41
  TRACK 66 AUDIO
    TITLE "14:cjc029_3369"
    INDEX 01 01:11:47
  TRACK 67 AUDIO
    TITLE "0:"
    INDEX 01 01:14:00
  TRACK 68 AUDIO
    TITLE "13:cjc029_3370"
    INDEX 01 01:14:57
  TRACK 69 AUDIO
    TITLE "0:"
    INDEX 01 01:15:68
  TRACK 70 AUDIO
    TITLE "14:cjc029_3371"
    INDEX 01 01:15:70
  TRACK 71 AUDIO
    TITLE "0:"
    INDEX 01 01:19:74
